<mxfile host="app.diagrams.net">
  <diagram id="uml1" name="UML Class Diagram">
    <mxGraphModel dx="1000" dy="1000" grid="1" gridSize="10" guides="1" tooltips="1" connect="1" arrows="1" fold="1" page="1" pageScale="1" pageWidth="850" pageHeight="1100" math="0" shadow="0">
      <root>
        <mxCell id="0" />
        <mxCell id="1" parent="0" />
        <!-- Entity class -->
        <mxCell id="2" value="Entity" style="rounded=1;whiteSpace=wrap;html=1;" vertex="1" parent="1">
          <mxGeometry x="40" y="40" width="140" height="80" as="geometry" />
        </mxCell>
        <!-- Plant class -->
        <mxCell id="3" value="Plant extends Entity" style="rounded=1;whiteSpace=wrap;html=1;" vertex="1" parent="1">
          <mxGeometry x="220" y="40" width="140" height="80" as="geometry" />
        </mxCell>
        <!-- Zombie class -->
        <mxCell id="4" value="Zombie extends Entity" style="rounded=1;whiteSpace=wrap;html=1;" vertex="1" parent="1">
          <mxGeometry x="400" y="40" width="140" height="80" as="geometry" />
        </mxCell>
        <!-- Armor class -->
        <mxCell id="5" value="Armor (abstract)" style="rounded=1;whiteSpace=wrap;html=1;" vertex="1" parent="1">
          <mxGeometry x="580" y="40" width="140" height="80" as="geometry" />
        </mxCell>
        <!-- Player class -->
        <mxCell id="6" value="Player" style="rounded=1;whiteSpace=wrap;html=1;" vertex="1" parent="1">
          <mxGeometry x="40" y="180" width="140" height="80" as="geometry" />
        </mxCell>
        <!-- GameController class -->
        <mxCell id="7" value="GameController" style="rounded=1;whiteSpace=wrap;html=1;" vertex="1" parent="1">
          <mxGeometry x="220" y="180" width="140" height="80" as="geometry" />
        </mxCell>
        <!-- GameView class -->
        <mxCell id="8" value="GameView" style="rounded=1;whiteSpace=wrap;html=1;" vertex="1" parent="1">
          <mxGeometry x="400" y="180" width="140" height="80" as="geometry" />
        </mxCell>
        <!-- MainMenuController class -->
        <mxCell id="9" value="MainMenuController" style="rounded=1;whiteSpace=wrap;html=1;" vertex="1" parent="1">
          <mxGeometry x="580" y="180" width="140" height="80" as="geometry" />
        </mxCell>
        <!-- MainMenuView class -->
        <mxCell id="10" value="MainMenuView" style="rounded=1;whiteSpace=wrap;html=1;" vertex="1" parent="1">
          <mxGeometry x="760" y="180" width="140" height="80" as="geometry" />
        </mxCell>
        <!-- Inheritance arrows -->
        <mxCell id="11" style="endArrow=block;endFill=1;html=1;" edge="1" parent="1" source="3" target="2">
          <mxGeometry relative="1" as="geometry" />
        </mxCell>
        <mxCell id="12" style="endArrow=block;endFill=1;html=1;" edge="1" parent="1" source="4" target="2">
          <mxGeometry relative="1" as="geometry" />
        </mxCell>
        <!-- Armor association to Zombie -->
        <mxCell id="13" style="endArrow=open;endFill=0;html=1;dashed=1;" edge="1" parent="1" source="5" target="4">
          <mxGeometry relative="1" as="geometry" />
        </mxCell>
        <!-- GameController association to GameView -->
        <mxCell id="14" style="endArrow=open;endFill=0;html=1;" edge="1" parent="1" source="7" target="8">
          <mxGeometry relative="1" as="geometry" />
        </mxCell>
        <!-- MainMenuController association to MainMenuView -->
        <mxCell id="15" style="endArrow=open;endFill=0;html=1;" edge="1" parent="1" source="9" target="10">
          <mxGeometry relative="1" as="geometry" />
        </mxCell>
      </root>
    </mxGraphModel>
  </diagram>
</mxfile>
